<?xml version="1.0" encoding="UTF-8"?>
<svg viewBox="0 0 720 720" xmlns="http://www.w3.org/2000/svg">
 <path transform="matrix(3.4431 0 0 3.4431 -968.05 -1091.5)" d="m481.56 421.56a95.844 95.844 0 0 1 -3.2658 24.806l-92.578-24.806z" fill="#80ff00"/>
 <path transform="matrix(0 -3.4431 3.4431 0 -1091.5 1688)" d="m481.56 421.56a95.844 95.844 0 0 1 -3.2658 24.806l-92.578-24.806z" fill="#f00"/>
 <path transform="matrix(.89114 -3.3258 3.3258 .89114 -1385.7 1267.1)" d="m481.56 421.56a95.844 95.844 0 0 1 -3.2658 24.806l-92.578-24.806z" fill="#ff4000"/>
 <path transform="matrix(1.7215 -2.9818 2.9818 1.7215 -1561 784.39)" d="m481.56 421.56a95.844 95.844 0 0 1 -3.2658 24.806l-92.578-24.806z" fill="#ff8000"/>
 <path transform="matrix(2.4346 -2.4346 2.4346 2.4346 -1605.4 272.73)" d="m481.56 421.56a95.844 95.844 0 0 1 -3.2658 24.806l-92.578-24.806z" fill="#ffc000"/>
 <path transform="matrix(2.9818 -1.7215 1.7215 2.9818 -1515.9 -232.98)" d="m481.56 421.56a95.844 95.844 0 0 1 -3.2658 24.806l-92.578-24.806z" fill="#ff0"/>
 <path transform="matrix(3.3258 -.89114 .89114 3.3258 -1298.5 -698.28)" d="m481.56 421.56a95.844 95.844 0 0 1 -3.2658 24.806l-92.578-24.806z" fill="#c0ff00"/>
 <path transform="matrix(3.3258 .89114 -.89114 3.3258 -547.13 -1385.7)" d="m481.56 421.56a95.844 95.844 0 0 1 -3.2658 24.806l-92.578-24.806z" fill="#40ff00"/>
 <path transform="matrix(2.9818 1.7215 -1.7215 2.9818 -64.392 -1561)" d="m481.56 421.56a95.844 95.844 0 0 1 -3.2658 24.806l-92.578-24.806z" fill="#0f0"/>
 <path transform="matrix(2.4346 2.4346 -2.4346 2.4346 447.27 -1605.4)" d="m481.56 421.56a95.844 95.844 0 0 1 -3.2658 24.806l-92.578-24.806z" fill="#00ff40"/>
 <path transform="matrix(1.7215 2.9818 -2.9818 1.7215 952.98 -1515.9)" d="m481.56 421.56a95.844 95.844 0 0 1 -3.2658 24.806l-92.578-24.806z" fill="#00ff80"/>
 <path transform="matrix(.89114 3.3258 -3.3258 .89114 1418.3 -1298.5)" d="m481.56 421.56a95.844 95.844 0 0 1 -3.2658 24.806l-92.578-24.806z" fill="#00ffc0"/>
 <path transform="matrix(-5.6548e-16 3.4431 -3.4431 -5.6548e-16 1811.5 -968.05)" d="m481.56 421.56a95.844 95.844 0 0 1 -3.2658 24.806l-92.578-24.806z" fill="#0ff"/>
 <path transform="matrix(-.89114 3.3258 -3.3258 -.89114 2105.7 -547.13)" d="m481.56 421.56a95.844 95.844 0 0 1 -3.2658 24.806l-92.578-24.806z" fill="#00c0ff"/>
 <path transform="matrix(-1.7215 2.9818 -2.9818 -1.7215 2281 -64.392)" d="m481.56 421.56a95.844 95.844 0 0 1 -3.2658 24.806l-92.578-24.806z" fill="#0080ff"/>
 <path transform="matrix(-2.4346 2.4346 -2.4346 -2.4346 2325.4 447.27)" d="m481.56 421.56a95.844 95.844 0 0 1 -3.2658 24.806l-92.578-24.806z" fill="#0040ff"/>
 <path transform="matrix(-2.9818 1.7215 -1.7215 -2.9818 2235.9 952.98)" d="m481.56 421.56a95.844 95.844 0 0 1 -3.2658 24.806l-92.578-24.806z" fill="#0040ff"/>
 <path transform="matrix(-3.3258 .89114 -.89114 -3.3258 2018.5 1418.3)" d="m481.56 421.56a95.844 95.844 0 0 1 -3.2658 24.806l-92.578-24.806z" fill="#4000ff"/>
 <path transform="matrix(-3.4431 -5.6548e-16 5.6548e-16 -3.4431 1688 1811.5)" d="m481.56 421.56a95.844 95.844 0 0 1 -3.2658 24.806l-92.578-24.806z" fill="#8000ff"/>
 <path transform="matrix(-3.3258 -.89114 .89114 -3.3258 1267.1 2105.7)" d="m481.56 421.56a95.844 95.844 0 0 1 -3.2658 24.806l-92.578-24.806z" fill="#c000ff"/>
 <path transform="matrix(-2.9818 -1.7215 1.7215 -2.9818 784.39 2281)" d="m481.56 421.56a95.844 95.844 0 0 1 -3.2658 24.806l-92.578-24.806z" fill="#f0f"/>
 <path transform="matrix(-2.4346 -2.4346 2.4346 -2.4346 272.73 2325.4)" d="m481.56 421.56a95.844 95.844 0 0 1 -3.2658 24.806l-92.578-24.806z" fill="#ff00c0"/>
 <path transform="matrix(-1.7215 -2.9818 2.9818 -1.7215 -232.98 2235.9)" d="m481.56 421.56a95.844 95.844 0 0 1 -3.2658 24.806l-92.578-24.806z" fill="#ff0080"/>
 <path transform="matrix(-.89114 -3.3258 3.3258 -.89114 -698.28 2018.5)" d="m481.56 421.56a95.844 95.844 0 0 1 -3.2658 24.806l-92.578-24.806z" fill="#ff0040"/>
</svg>
